{"title":"Dum (2015) Hindi Dubbed DvD Scr Rip - XviD - [1CD] - Team IcTv E","uid":11867042,"size":724179870,"categoryP":"video","categoryS":"movies","magnet":"?xt=urn:btih:bb74078e6275131b817ab99bf3136a376f028c9a&amp;dn=Dum+%282015%29+Hindi+Dubbed+DvD+Scr+Rip+-+XviD+-+%5B1CD%5D+-+Team+IcTv+E&amp;tr=udp%3A%2F%2Ftracker.openbittorrent.com%3A80&amp;tr=udp%3A%2F%2Fopen.demonii.com%3A1337&amp;tr=udp%3A%2F%2Ftracker.coppersurfer.tk%3A6969&amp;tr=udp%3A%2F%2Fexodus.desync.com%3A6969","seeders":3,"leechers":1,"uploader":"makintos13","files":1,"time":1430385179,"description":"screens:\n &lt;a href=&quot;\nhttp://imgmak.com/mv&quot; rel=&quot;nofollow&quot; target=&quot;_NEW&quot;&gt;\nhttp://imgmak.com/mv&lt;/a&gt;\n &lt;a href=&quot;\nhttp://imgmak.com/my&quot; rel=&quot;nofollow&quot; target=&quot;_NEW&quot;&gt;\nhttp://imgmak.com/my&lt;/a&gt;\n &lt;a href=&quot;\nhttp://imgmak.com/m6&quot; rel=&quot;nofollow&quot; target=&quot;_NEW&quot;&gt;\nhttp://imgmak.com/m6&lt;/a&gt;\n &lt;a href=&quot;\nhttp://imgmak.com/m9&quot; rel=&quot;nofollow&quot; target=&quot;_NEW&quot;&gt;\nhttp://imgmak.com/m9&lt;/a&gt;\n &lt;a href=&quot;\nhttp://imgmak.com/mM&quot; rel=&quot;nofollow&quot; target=&quot;_NEW&quot;&gt;\nhttp://imgmak.com/mM&lt;/a&gt;\n\n\nMovie Info\nBanner : Goldmines\nYear : 2015\nCast : Manoj Bajpai - Allu Arjun\nVideo: XviD\nAudio : MP3\nGenre : Drama - Action\nSubtitles : None\nRuntime : 2hr 25min xx\nSource : Team IcTv\n\nFormat : AVI\nFormat/Info : Audio Video Interleave\nFile size : 691 MiB\nDuration : 2h 24mn\nOverall bit rate : 670 Kbps\n\nVideo\nID : 0\nFormat : MPEG-4 Visual\nFormat profile : Advanced Simple@L5\nFormat settings, BVOP : 2\nFormat settings, QPel : No\nFormat settings, GMC : No warppoints\nFormat settings, Matrix : Default (H.263)\nCodec ID : XVID\nCodec ID/Hint : XviD\nDuration : 2h 24mn\nBit rate : 534 Kbps\nWidth : 640 pixels\nHeight : 300 pixels\nDisplay aspect ratio : 2.133\nFrame rate : 29.970 fps\nColor space : YUV\nChroma subsampling : 4:2:0\nBit depth : 8 bits\nScan type : Progressive\nCompression mode : Lossy\nBits/(Pixel*Frame) : 0.093\nStream size : 551 MiB (80%)\nWriting library : XviD 1.2.1 (UTC 2008-12-04)\n\nAudio\nID : 1\nFormat : MPEG Audio\nFormat version : Version 1\nFormat profile : Layer 3\nMode : Joint stereo\nMode extension : MS Stereo\nCodec ID : 55\nCodec ID/Hint : MP3\nDuration : 2h 24mn\nBit rate mode : Constant\nBit rate : 128 Kbps\nChannel(s) : 2 channels\nSampling rate : 48.0 KHz\nCompression mode : Lossy\nStream size : 132 MiB (19%)\nAlignment : Aligned on interleaves\nInterleave, duration : 133 ms (4.00 video frames)\nInterleave, preload duratio : 216 ms\nTitle : VTS_02_1.avi_track_1_\nWriting library : LAME3.99r\nEncoding settings : -m j -V 4 -q 2 -lowpass 17 -b 128\n\nCredits to show and ictv","torrent":{"xt":"urn:btih:bb74078e6275131b817ab99bf3136a376f028c9a","amp;dn":"Dum+%282015%29+Hindi+Dubbed+DvD+Scr+Rip+-+XviD+-+%5B1CD%5D+-+Team+IcTv+E","amp;tr":["udp%3A%2F%2Ftracker.openbittorrent.com%3A80","udp%3A%2F%2Fopen.demonii.com%3A1337","udp%3A%2F%2Ftracker.coppersurfer.tk%3A6969","udp%3A%2F%2Fexodus.desync.com%3A6969"],"infoHash":"bb74078e6275131b817ab99bf3136a376f028c9a","infoHashBuffer":{"type":"Buffer","data":[187,116,7,142,98,117,19,27,129,122,185,155,243,19,106,55,111,2,140,154]},"announce":[],"urlList":[]}}